<?xml version="1.0" encoding="UTF-8"?>
<svg width="206px" height="190px" viewBox="0 0 206 190" version="1.1" xmlns="http://www.w3.org/2000/svg" xmlns:xlink="http://www.w3.org/1999/xlink">
    <!-- Generator: Sketch 45.2 (43514) - http://www.bohemiancoding.com/sketch -->
    <title>Group 5</title>
    <desc>Created with Sketch.</desc>
    <defs>
        <path d="M18,26.0098589 C18,11.6450105 29.6374393,2.84217094e-14 44,2.84217094e-14 L44,2.84217094e-14 C58.3594035,2.84217094e-14 70,11.6325638 70,26.0098589 L70,58 L18,58 L18,26.0098589 Z" id="path-1"></path>
    </defs>
    <g id="Page-1" stroke="none" stroke-width="1" fill="none" fill-rule="evenodd">
        <g id="Main-V3" transform="translate(-293.000000, -4904.000000)">
            <g id="How-it-Works" transform="translate(244.000000, 4704.000000)">
                <g id="Group-8" transform="translate(49.000000, 197.000000)">
                    <g id="Group-5" transform="translate(0.000000, 3.000000)">
                        <g id="how-it-works-monthly" transform="translate(60.000000, 0.000000)">
                            <path d="M29.5,77.5 L57.5,77.5 L57.5,73.5 C57.5,71.2950406 55.7042458,69.5 53.4935425,69.5 L33.5064575,69.5 C31.2891349,69.5 29.5,71.2885838 29.5,73.5 L29.5,77.5 Z" id="Rectangle-10-Copy" stroke="#4ABFB6" stroke-width="3"></path>
                            <path d="M63.5056411,31.5056411 L88.5056411,31.5056411 L88.5056411,29.6172587 C88.5056411,25.9217458 85.6341457,21.6815284 82.2017829,20.3095474 L68.6960018,14.9110285 C65.6750751,13.7035063 63.5056411,15.1717257 63.5056411,18.4188785 L63.5056411,31.5056411 Z" id="Rectangle-10-Copy-5" stroke="#4ABFB6" stroke-width="3" transform="translate(76.005641, 23.000000) rotate(-270.000000) translate(-76.005641, -23.000000) "></path>
                            <path d="M-1.50564107,31.5056411 L23.4943589,31.5056411 L23.4943589,29.6172587 C23.4943589,25.9217458 20.6228636,21.6815284 17.1905007,20.3095474 L3.68471965,14.9110285 C0.663792976,13.7035063 -1.50564107,15.1717257 -1.50564107,18.4188785 L-1.50564107,31.5056411 Z" id="Rectangle-10-Copy-6" stroke="#4ABFB6" stroke-width="3" transform="translate(10.994359, 23.000000) scale(-1, 1) rotate(-270.000000) translate(-10.994359, -23.000000) "></path>
                            <path d="M22.5,85.5 L66.5,85.5 L66.5,81.5 C66.5,79.2950478 64.7042006,77.5 62.4934259,77.5 L26.5065741,77.5 C24.290569,77.5 22.5,79.28947 22.5,81.5 L22.5,85.5 Z" id="Rectangle-10-Copy-2" stroke="#4ABFB6" stroke-width="3"></path>
                            <path d="M38.8338997,55.5 C40.9979085,59.3216607 40.9974947,64.6789665 38.833892,68.5 L50.3291253,68.5 C48.4072003,64.6532188 48.4073498,59.346529 50.3291288,55.5 L38.8338997,55.5 Z" id="Rectangle-10-Copy-4" stroke="#4ABFB6" stroke-width="3"></path>
                            <g id="Rectangle-10-Copy-3" transform="translate(44.000000, 29.000000) rotate(-180.000000) translate(-44.000000, -29.000000) ">
                                <use fill="#FFFFFF" fill-rule="evenodd" xlink:href="#path-1"></use>
                                <path stroke="#4ABFB6" stroke-width="3" d="M19.5,56.5 L68.5,56.5 L68.5,26.0098589 C68.5,12.4652733 57.5352586,1.5 44,1.5 C30.4671123,1.5 19.5,12.4721912 19.5,26.0098589 L19.5,56.5 Z"></path>
                            </g>
                        </g>
                        <g id="Group-45" transform="translate(0.000000, 107.000000)">
                            <rect id="Rectangle-3" stroke="#DDDDDD" stroke-width="3" x="1.5" y="1.5" width="203" height="80" rx="40"></rect>
                            <text id="Monthly" font-family="Lato-Black, Lato" font-size="28" font-weight="700" fill="#4ABFB6">
                                <tspan x="45.1311409" y="51"> Monthly</tspan>
                            </text>
                        </g>
                    </g>
                </g>
            </g>
        </g>
    </g>
</svg>