<?xml version="1.0" encoding="UTF-8"?>
<svg width="113px" height="65px" viewBox="0 0 113 65" version="1.1" xmlns="http://www.w3.org/2000/svg" xmlns:xlink="http://www.w3.org/1999/xlink">
    <!-- Generator: Sketch 45.2 (43514) - http://www.bohemiancoding.com/sketch -->
    <title>Group 7</title>
    <desc>Created with Sketch.</desc>
    <defs></defs>
    <g id="Page-1" stroke="none" stroke-width="1" fill="none" fill-rule="evenodd">
        <g id="Pricing-V1" transform="translate(-339.000000, -1046.000000)" stroke="#4ABFB6" stroke-width="3">
            <g id="Body" transform="translate(0.000000, 767.000000)">
                <g id="Group-17" transform="translate(282.000000, 279.000000)">
                    <g id="Group-7" transform="translate(57.000000, 0.000000)">
                        <path d="M17.7830346,57.5366972 L95.8180292,57.5366972 C96.4736027,53.2041307 99.9253,49.7831295 104.287234,49.1369718 L104.287234,16.4593585 C99.9253,15.8132008 96.4736027,12.3921996 95.8180292,8.05963303 L17.7830346,8.05963303 C17.1274612,12.3921996 13.6757638,15.8132008 9.31382979,16.4593585 L9.31382979,49.1369718 C13.6757638,49.7831295 17.1274612,53.2041307 17.7830346,57.5366972 Z" id="Combined-Shape-Copy-2"></path>
                        <g id="Group-6-Copy">
                            <rect id="Rectangle-16-Copy-2" x="1.5" y="1.5" width="110" height="62" rx="7.5999999"></rect>
                            <g id="Group-5" transform="translate(18.632979, 14.311927)">
                                <ellipse id="Oval-11-Copy" cx="37.9139043" cy="17.8899083" rx="18.0319149" ry="17.8899083"></ellipse>
                                <ellipse id="Oval-11-Copy-2" cx="69.7234043" cy="17.8899083" rx="6.0106383" ry="5.96330275"></ellipse>
                                <ellipse id="Oval-11-Copy-7" cx="6.10440426" cy="18.4862385" rx="6.0106383" ry="5.96330275"></ellipse>
                            </g>
                        </g>
                    </g>
                </g>
            </g>
        </g>
    </g>
</svg>